<svg width="18px" height="18px" viewBox="0 0 18 18" version="1.1" xmlns="http://www.w3.org/2000/svg" fill-rule="evenodd" clip-rule="evenodd" stroke-linejoin="round" stroke-miterlimit="2">
	<circle cx="9" cy="9" r="9" fill="#13231c"/>
		<path d="M6.171 9.6v-.68c-.3.103-.66.155-1.083.155-.469 0-.78.061-.937.184-.09.072-.136.185-.136.34 0 .156.045.269.136.34.156.13.468.194.937.194.475 0 .79-.065.946-.194.091-.07.137-.184.137-.34m1.015-.003c0 1.022-.7 1.533-2.098 1.533-.8 0-1.376-.183-1.727-.55C3.12 10.323 3 9.995 3 9.597c0-.399.12-.727.36-.984.352-.366.928-.55 1.728-.55.475 0 .79-.064.946-.194.091-.07.137-.18.137-.33 0-.155-.046-.268-.137-.339-.156-.129-.471-.194-.946-.194-.469 0-.78.065-.937.195-.09.072-.136.185-.136.341H3c0-.398.12-.726.36-.983.352-.365.928-.549 1.728-.549 1.399 0 2.098.511 2.098 1.532h.011l-.011 2.055zM12.002 8.574c0-.523-.087-.9-.263-1.133-.222-.29-.602-.436-1.142-.436-.54 0-.917.146-1.132.436-.176.233-.263.61-.263 1.133v1.56h1.395c.54 0 .92-.143 1.142-.427.176-.239.263-.616.263-1.133m1.015 0c0 1.704-.807 2.555-2.42 2.555H9.202V16H8.187V8.572c0-1.708.803-2.563 2.41-2.563 1.613 0 2.42.855 2.42 2.565" fill="#f78f24" fill-rule="nonzero"/>
		<path d="M13.985 6.01H15v5.12h-1.015V6.01zM15 4.995h-1.015V4H15v.996z" fill="#fff" fill-rule="nonzero"/>
</svg>
