<?xml version="1.0" encoding="UTF-8"?>
<svg width="18px" height="18px" viewBox="0 0 18 18" xmlns="http://www.w3.org/2000/svg" fill-rule="evenodd" clip-rule="evenodd">
	<path fill="url(#_Linear1-bcyquiycguqsy)" d="M0 0h18v18H0z"/>
	<g fill="#fff" fill-rule="nonzero">
		<path d="M.844 10.969c.136-.009.217-.037.263-.082.045-.045.072-.136.072-.281V8.819c0-.146-.027-.245-.072-.282-.046-.036-.136-.063-.263-.081v-.1h1.279c.336 0 .599.054.78.163.173.109.263.3.263.572a.766.766 0 0 1-.099.372.733.733 0 0 1-.345.281 1.027 1.027 0 0 1-.363.091c-.118.009-.3.009-.535.009v.762c0 .145.027.245.072.29.046.046.136.073.272.073v.1H.844v-.1zm1.451-1.343c.127-.082.191-.254.191-.526 0-.182-.027-.336-.091-.445-.063-.109-.172-.172-.345-.172a.4.4 0 0 0-.172.027c-.036.018-.054.055-.054.109v1.08c.235.009.39-.019.471-.073zM4.627 8.356v.1c-.154.009-.254.027-.308.072-.055.046-.082.136-.082.291v1.351c0 .209.027.363.072.472.091.209.255.309.499.309.3 0 .509-.118.617-.345.064-.127.091-.3.091-.526V8.855c0-.145-.027-.245-.082-.3-.054-.054-.154-.09-.308-.099v-.1h.871v.1c-.127.027-.209.054-.245.09-.036.037-.063.118-.063.245v1.289c0 .344-.082.608-.245.789-.164.181-.418.281-.772.281-.453 0-.771-.136-.934-.417-.091-.145-.136-.336-.136-.572V8.819c0-.146-.018-.245-.055-.282-.036-.036-.127-.063-.263-.081v-.1h1.343zM6.133 10.969a.438.438 0 0 0 .227-.046c.082-.045.118-.118.118-.235V8.737c0-.118-.036-.191-.109-.236-.045-.027-.127-.036-.236-.045v-.1h1.234a1.8 1.8 0 0 1 .59.082c.299.099.444.29.444.562a.504.504 0 0 1-.181.399.768.768 0 0 1-.39.182v.036a1.2 1.2 0 0 1 .381.145c.208.136.317.318.317.563a.62.62 0 0 1-.308.544c-.2.136-.472.209-.817.209h-1.27v-.109zm1.488-1.524c.082-.082.127-.227.127-.427a.785.785 0 0 0-.082-.381c-.054-.109-.163-.154-.317-.154-.082 0-.145.018-.173.045-.036.027-.045.082-.045.154v.899c.236-.009.399-.055.49-.136zm-.472 1.406c.036.054.1.081.191.081.19 0 .326-.054.399-.154a.767.767 0 0 0 .118-.444c0-.282-.082-.472-.254-.572-.1-.054-.263-.082-.481-.082v.998c0 .091.009.137.027.173zM8.809 10.969a.438.438 0 0 0 .227-.046c.082-.045.118-.127.118-.245V8.737c0-.118-.036-.191-.109-.236-.045-.027-.127-.036-.236-.045v-.1h1.389v.1c-.164.009-.273.027-.327.072-.054.037-.082.136-.082.3v1.896c0 .091.028.145.073.172.045.027.136.046.272.046.236 0 .436-.055.599-.155.163-.109.299-.308.417-.617h.118l-.154.908H8.809v-.109zM11.441 10.969c.108 0 .19-.018.244-.037.082-.045.118-.117.118-.244V8.737c0-.118-.036-.2-.118-.236-.045-.027-.127-.036-.244-.045v-.1h1.388v.1c-.127.009-.209.018-.254.045-.082.036-.118.118-.118.236v1.951c0 .108.027.19.09.226a.567.567 0 0 0 .282.055v.1h-1.388v-.1zM.853 16.557c.109-.009.181-.018.227-.045.072-.045.109-.118.109-.236v-1.95c0-.109-.037-.191-.1-.227-.037-.027-.118-.046-.236-.055v-.099h1.343v.099c-.118.009-.2.019-.245.046-.073.036-.109.118-.109.236v.834h.952v-.834c0-.118-.036-.191-.109-.227-.045-.027-.127-.036-.244-.046v-.099h1.351v.099a.63.63 0 0 0-.245.055c-.072.036-.108.118-.108.227v1.95c0 .118.036.2.117.236.046.027.118.036.227.046v.099H2.441v-.099c.108 0 .19-.019.235-.046.073-.045.109-.118.109-.236v-.934h-.943v.934c0 .118.036.2.118.245a.668.668 0 0 0 .236.037v.099H.853v-.109zM3.938 16.657l-.001-.1c.118 0 .2-.018.245-.045.073-.045.109-.118.109-.236v-1.95c0-.118-.036-.191-.118-.236a.627.627 0 0 0-.235-.046v-.099h2.286v.816h-.1c-.054-.263-.136-.435-.254-.535-.118-.1-.336-.145-.653-.145-.118 0-.2.009-.227.036-.036.027-.045.073-.045.154v.935c.226 0 .381-.037.453-.127.082-.082.145-.236.182-.463h.099v1.343H5.58c-.028-.227-.082-.39-.173-.481-.09-.091-.245-.136-.472-.136v.971c0 .081.019.145.064.172a.568.568 0 0 0 .263.045c.254 0 .463-.045.617-.145.163-.1.299-.281.426-.553h.109l-.154.834H3.937v-.009zM6.578 16.557a.449.449 0 0 0 .226-.045c.082-.045.118-.118.118-.236v-1.95c0-.118-.036-.191-.108-.236a.638.638 0 0 0-.236-.046v-.099h1.233c.236 0 .436.027.59.081.3.1.445.291.445.563a.505.505 0 0 1-.182.399.766.766 0 0 1-.39.181v.037c.145.027.272.081.381.145.209.136.318.317.318.562a.62.62 0 0 1-.309.545c-.199.136-.471.208-.816.208h-1.27v-.109zm1.488-1.524c.081-.081.127-.227.127-.426a.796.796 0 0 0-.082-.381c-.055-.109-.163-.154-.318-.154-.081 0-.145.018-.172.045-.036.027-.045.082-.045.154v.898c.235-.009.399-.054.49-.136zm-.472 1.407c.036.054.09.081.19.081.191 0 .327-.054.399-.154.073-.1.118-.245.118-.445 0-.281-.081-.471-.254-.571-.099-.055-.263-.082-.48-.082v.998c0 .082.009.136.027.173zM9.227 16.557a.568.568 0 0 0 .218-.045c.081-.036.117-.109.117-.218v-1.987c0-.099-.036-.172-.108-.208-.046-.027-.118-.036-.227-.046v-.099h1.216c.489 0 .861.136 1.125.399.235.245.353.562.353.971 0 .362-.118.671-.353.925-.264.281-.626.426-1.08.426H9.227v-.118zm1.016-.09c.027.036.082.054.172.054a.736.736 0 0 0 .581-.254c.154-.172.227-.49.227-.971 0-.281-.037-.526-.118-.735-.136-.326-.354-.489-.672-.489-.099 0-.172.018-.199.063-.018.027-.027.082-.027.163v1.978c0 .091.018.154.036.191zM14.589 14.271c.272.272.408.617.408 1.034 0 .427-.136.772-.408 1.035-.263.263-.599.39-.998.39-.427 0-.771-.145-1.044-.427a1.376 1.376 0 0 1-.372-.979c0-.418.127-.763.391-1.035.263-.272.607-.408 1.025-.408.399 0 .726.127.998.39zm-.39 1.797c.063-.191.09-.445.09-.753 0-.427-.063-.754-.19-.971-.127-.218-.3-.327-.517-.327-.3 0-.508.182-.617.544a2.777 2.777 0 0 0-.091.754c0 .308.027.562.091.753.109.353.317.535.617.535.299 0 .508-.182.617-.535zM15.278 15.723h.118c.064.299.163.517.309.653a.688.688 0 0 0 .49.209c.181 0 .299-.046.381-.145a.473.473 0 0 0 .108-.3.37.37 0 0 0-.117-.29 1.304 1.304 0 0 0-.318-.2l-.254-.127c-.254-.127-.426-.254-.535-.381a.728.728 0 0 1-.155-.463c0-.199.073-.381.209-.553.136-.172.345-.254.635-.254.145 0 .281.018.418.063.136.046.208.064.226.064.046 0 .073-.009.091-.036a.265.265 0 0 0 .036-.1h.118v.88h-.109a1.35 1.35 0 0 0-.272-.535.622.622 0 0 0-.481-.227c-.136 0-.235.036-.308.109a.374.374 0 0 0-.118.272c0 .127.036.218.109.281.072.064.227.163.472.281l.29.146c.127.063.236.145.318.226a.776.776 0 0 1 .217.554.856.856 0 0 1-.236.571c-.154.182-.408.273-.753.273-.081 0-.163-.01-.245-.019-.081-.018-.163-.036-.236-.063l-.081-.009c-.018-.009-.036-.009-.055-.009-.018 0-.027-.009-.045-.009-.045 0-.073.009-.082.036a.253.253 0 0 0-.036.1h-.118v-.998h.009z"/>
	</g>
	<path d="M.717 12.411H17.02" fill="none" stroke="#fff" stroke-width=".2"/>
	<path d="M1.905.898v.254h-.027a.319.319 0 0 0-.127-.19.324.324 0 0 0-.181-.064.232.232 0 0 0-.173.073.392.392 0 0 0-.1.19 1.276 1.276 0 0 0 0 .527.298.298 0 0 0 .1.172c.046.036.1.054.163.054.019 0 .046 0 .073-.009.027-.009.1-.027.118-.036v-.363c0-.045 0-.073-.009-.082-.009-.009-.018-.027-.027-.036a.132.132 0 0 0-.055-.018h-.027v-.027l.399.009v.027a.14.14 0 0 0-.072.018c-.009.009-.028.018-.028.046 0 .009-.009.036-.009.072v.363a1.179 1.179 0 0 1-.181.073.716.716 0 0 1-.2.027.473.473 0 0 1-.217-.046c-.055-.027-.082-.063-.127-.108a.404.404 0 0 1-.1-.155.694.694 0 0 1-.046-.245c0-.163.019-.299.118-.408a.479.479 0 0 1 .363-.172c.046 0 .127 0 .164.009.136.009.208.045.208.045zM2.304 1.606v.209c0 .045 0 .063.01.081 0 .009.009.018.018.027.009.009.027.009.063.009v.019h-.29v-.019c.027 0 .045 0 .063-.009.009-.009.018-.018.018-.027 0-.009.01-.036.01-.072v-.49c0-.046 0-.064-.01-.082 0-.009-.009-.018-.018-.027-.009-.009-.027-.009-.063-.009v-.018h.263c.082 0 .136.009.172.018.037.009.064.036.091.072a.185.185 0 0 1 .036.118c0 .055-.018.1-.054.136-.018.028-.055.037-.091.055l.154.254c.019.036.037.054.046.063a.069.069 0 0 0 .045.018v.019h-.172l-.209-.345h-.082zm0-.372v.336h.028c.045 0 .072-.01.099-.019a.147.147 0 0 0 .055-.054c.009-.027.018-.054.018-.1 0-.054-.009-.1-.036-.127a.151.151 0 0 0-.109-.045h-.055v.009zM3.121 1.179c.1 0 .181.028.254.109.064.073.073.136.073.254 0 .1 0 .209-.046.282a.3.3 0 0 1-.272.145.313.313 0 0 1-.272-.136c-.055-.073-.055-.145-.055-.245 0-.109.019-.227.082-.3a.308.308 0 0 1 .236-.109zm.009.037c-.054 0-.1.036-.136.109a.63.63 0 0 0-.036.254c0 .127.018.226.054.29a.119.119 0 0 0 .109.063c.036 0 .063-.009.082-.027a.283.283 0 0 0 .063-.118.647.647 0 0 0 .027-.208c0-.1-.009-.173-.027-.227a.307.307 0 0 0-.063-.109c-.009-.018-.037-.027-.073-.027zM3.475 1.189h.308v.018h-.018c-.027 0-.045 0-.054.009-.009.009-.018.018-.018.027 0 .009-.01.036-.01.082v.372c0 .063.01.09.019.118.009.036.045.063.063.072.018.018.055.018.091.018s.1-.009.127-.027a.138.138 0 0 0 .054-.073.701.701 0 0 0 .018-.172v-.308c0-.037 0-.055-.009-.073-.009-.018-.009-.027-.018-.027-.018-.009-.036-.009-.063-.009v-.018h.227v.018h-.019c-.018 0-.036 0-.045.009a.124.124 0 0 0-.027.036c0 .009-.009.036-.009.064v.29a.823.823 0 0 1-.018.19.252.252 0 0 1-.073.109c-.036.037-.109.046-.172.046a.426.426 0 0 1-.164-.028.216.216 0 0 1-.09-.09.352.352 0 0 1-.028-.155v-.371c0-.046 0-.073-.009-.082 0-.009-.009-.018-.018-.027-.009-.009-.027-.009-.054-.009v-.009h.009zM4.473 1.606v.209c0 .045 0 .063.009.081 0 .009.009.018.027.027.009.009.027.009.064.009v.019h-.327v-.019c.027 0 .054 0 .063-.009.01-.009.019-.018.019-.027 0-.009.009-.036.009-.072v-.49c0-.046 0-.064-.009-.082 0-.009-.009-.018-.019-.027-.009-.009-.027-.009-.063-.009v-.018h.281c.091 0 .154.018.2.054a.215.215 0 0 1 .063.145.208.208 0 0 1-.036.127.23.23 0 0 1-.109.073c-.054.009-.1.009-.172.009zm0-.372v.326h.054c.037 0 .073-.009.091-.036a.24.24 0 0 0 .027-.127c0-.054-.009-.1-.027-.127-.018-.027-.054-.036-.091-.036h-.054zM5.262 1.542c.018 0 .018-.063.018-.063h.027v.163H5.28s.009-.063-.027-.063h-.19v.29c0 .009.009.018.018.027.009.009.018.009.036.009h.036c.064 0 .182-.054.191-.118h.018v.164h-.554v-.019h.019c.018 0 .036 0 .045-.009.009-.009.018-.018.018-.027 0-.009.009-.036.009-.072v-.563c0-.009-.009-.027-.018-.027a.069.069 0 0 0-.045-.018h-.018v-.018h.535v.172h-.018c-.009-.054-.082-.109-.109-.118-.018-.009-.055-.009-.1-.009h-.063v.299h.199z" fill="#fff" fill-rule="nonzero"/>
	<defs>
		<linearGradient id="_Linear1-bcyquiycguqsy" x2="1" gradientUnits="userSpaceOnUse" gradientTransform="rotate(-90 13.502 4.5) scale(18.0023)"><stop offset="0" stop-color="#99141b"/>
			<stop offset=".1" stop-color="#99141b"/>
			<stop offset=".9" stop-color="#e1001a"/>
			<stop offset="1" stop-color="#e1001a"/>
		</linearGradient>
	</defs>
</svg>
